<svg xmlns="http://www.w3.org/2000/svg" xmlns:xlink="http://www.w3.org/1999/xlink" version="1.1" width="1000"
     height="1000" viewBox="0 0 1000 1000" xml:space="preserve">
<defs>
</defs>
    <g transform="matrix(0 19.3934 -19.3934 0 499.9995 500.0005)" id="194722">
<path style="stroke: none; stroke-width: 1; stroke-dasharray: none; stroke-linecap: butt; stroke-dashoffset: 0; stroke-linejoin: miter; stroke-miterlimit: 4; is-custom-font: none; font-file-url: none; fill: rgb(3,1,4); fill-rule: nonzero; opacity: 1;"
      vector-effect="non-scaling-stroke" transform=" translate(-23.4385, -23.4378)"
      d="M 26.602 24.568 l 15.401 6.072 l -0.389 -4.902 c -10.271 -7.182 -9.066 -6.481 -14.984 -10.615 V 2.681 c 0 -1.809 -1.604 -2.701 -3.191 -2.681 c -1.587 -0.021 -3.19 0.872 -3.19 2.681 v 12.44 c -5.918 4.134 -4.714 3.434 -14.985 10.615 l -0.39 4.903 l 15.401 -6.072 c 0 0 -0.042 15.343 -0.006 15.581 l -5.511 3.771 v 2.957 l 7.044 -2.427 h 3.271 l 7.046 2.427 V 43.92 l -5.513 -3.771 C 26.644 39.909 26.602 24.568 26.602 24.568 z"
      stroke-linecap="round"/>
</g>
</svg>